<?xml version="1.0" encoding="utf-8"?>
<!-- Generator: Adobe Illustrator 21.0.2, SVG Export Plug-In . SVG Version: 6.00 Build 0)  -->
<svg version="1.1" id="Capa_1" xmlns="http://www.w3.org/2000/svg" xmlns:xlink="http://www.w3.org/1999/xlink" x="0px" y="0px"
	 viewBox="0 0 1400 347.1" style="enable-background:new 0 0 1400 347.1;" xml:space="preserve">
<style type="text/css">
	.st0{fill:#FFFFFF;}
</style>
<g>
	<g>
		<path class="st0" d="M425.2,262.4L447.4,134l36.5-0.1l-2.4,15.5c4.9-5.8,10.5-10.2,16.6-13.3c5.9-2.9,12.4-4.4,19.5-4.4
			c0.4,0,0.8,0,1.1,0c3.3,0.1,6.5,0.5,9.6,1.3s5.9,1.9,8.4,3.5s4.8,3.6,6.7,6s3.4,5.3,4.3,8.6c5.2-6.1,10.9-10.9,17.2-14.4
			c6.1-3.3,12.9-5,20.5-5c0.3,0,0.7,0,1.1,0c7.2,0.2,13,1.7,17.6,4.6s8.1,6.7,10.6,11.4c2.5,4.7,4,10,4.7,15.8
			c0.3,2.9,0.5,5.9,0.5,8.9s-0.2,6.1-0.5,9.1L606,262.3h-39.1l13.4-80.1c0.2-2.5,0.4-4.9,0.4-7.2c0-2.3-0.3-4.4-0.9-6.3
			c-0.7-1.8-1.8-3.3-3.4-4.5c-1.6-1.1-3.8-1.8-6.6-1.8c-4.2,0-7.8,1-10.8,3s-5.8,4.5-8.3,7.5l-0.7,3.9l-14.9,85.6h-39.2l13.6-80.7
			c0.2-2.4,0.3-4.7,0.4-7c0-2.3-0.3-4.4-0.9-6.1c-0.6-1.8-1.7-3.2-3.3-4.4c-1.6-1.1-3.8-1.7-6.8-1.7c-4.5,0-8.4,1-11.7,2.9
			s-6.5,4.4-9.2,7.3l-13.7,89.7H425.2z"/>
		<path class="st0" d="M637,217.1l13.9-83.1h39.2l-14.2,83.6c-0.2,2.3-0.3,4.4-0.1,6.4c0.2,1.9,0.7,3.6,1.6,5.1
			c0.9,1.4,2.1,2.6,3.7,3.5s3.7,1.4,6.2,1.5c0.4,0,0.7,0,1.1,0c3.9,0,7.4-0.8,10.5-2.4c3.5-1.8,6.6-4.2,9.3-7.4l15.9-90.2h39.2
			L741,262.5h-36.1l2.6-13.9c-4.6,5.3-9.7,9.4-15.4,12.3c-5.5,2.8-11.5,4.1-18.2,4.1c-0.4,0-0.8,0-1.1,0c-7.1-0.1-13-1.4-17.8-4
			s-8.7-6.1-11.6-10.4c-2.9-4.3-4.9-9.4-5.9-15c-0.6-3.6-1-7.3-1-11.1C636.6,222,636.7,219.6,637,217.1z"/>
		<path class="st0" d="M763.6,221l36.3,0.2c0.1,5.5,1.5,9.7,4.4,12.6c2.8,2.8,6.8,4.3,12.2,4.3c0.2,0,0.3,0,0.5,0
			c2.1,0,4.1-0.2,6.2-0.7c2.1-0.5,3.9-1.2,5.6-2.2c1.7-1,3.2-2.3,4.4-3.9s2.1-3.5,2.6-5.7c0.5-2.5,0-4.5-1.5-6.1s-3.3-2.9-5.6-3.9
			s-4.7-1.8-7.2-2.4s-4.6-1.1-6.2-1.5c-4.8-1.3-9.6-2.9-14.4-4.9c-4.8-2-9.1-4.6-12.9-7.7c-3.8-3.1-6.8-6.8-9-11
			c-2.1-3.9-3-8.3-3-13.4c0-0.6,0-1.1,0-1.7c0.2-7.1,2.1-13.3,5.5-18.5s7.7-9.5,12.9-12.9c5.2-3.5,11.1-6,17.6-7.6
			c6.2-1.6,12.3-2.4,18.3-2.4c0.3,0,0.6,0,0.8,0c6.6,0.1,12.9,1,19,2.7s11.5,4.3,16.2,7.7c4.7,3.4,8.5,7.7,11.4,12.9
			c2.9,5.2,4.4,11.4,4.5,18.6l-38.9-0.1c0.1-2.4-0.1-4.5-0.5-6.3c-0.4-1.9-1.2-3.4-2.2-4.7c-1-1.3-2.4-2.3-4.2-3
			c-1.7-0.7-3.9-1.1-6.5-1.1c-1.9,0-3.8,0.3-5.7,0.9s-3.6,1.4-5.2,2.5c-1.6,1.1-2.9,2.4-4,4s-1.8,3.4-2.1,5.4
			c-0.5,2.3-0.2,4.2,1,5.7c1.1,1.5,2.6,2.8,4.4,3.7c1.8,1,3.8,1.8,5.9,2.4c2.1,0.6,4,1.1,5.7,1.4c5.4,1.3,10.7,2.8,16,4.7
			c5.3,1.9,10,4.4,14.2,7.4c4.2,3,7.5,6.8,10,11.3c2.3,4.1,3.4,9.1,3.4,15c0,0.6,0,1.1,0,1.7c-0.2,4.9-1.1,9.3-3,13.2
			c-1.8,3.9-4.2,7.4-7.1,10.4s-6.3,5.6-10.1,7.8c-3.8,2.2-7.9,3.9-12.2,5.3s-8.6,2.5-13.1,3.1c-4,0.6-7.8,0.8-11.4,0.7
			c-0.5,0-0.9,0-1.4,0c-6.6-0.1-12.9-1.1-19-3s-11.5-4.7-16.3-8.4c-4.7-3.7-8.6-8.2-11.5-13.7C765.3,234.3,763.8,228,763.6,221z"/>
		<path class="st0" d="M887.4,262.4L909.7,134h39.2l-22.3,128.4H887.4z M913.2,101c-0.1-2.8,0.4-5.4,1.5-7.7
			c1.1-2.5,2.7-4.6,4.7-6.3c2-1.8,4.3-3.2,6.9-4.2s5.4-1.5,8.3-1.5s5.6,0.4,8.1,1.2c2.6,0.8,4.8,2.1,6.8,3.7c2,1.6,3.6,3.6,4.7,6
			c1.2,2.4,1.8,5,1.9,8c0,0.2,0,0.4,0,0.6c0,2.8-0.5,5.4-1.5,7.7c-1.1,2.5-2.7,4.6-4.6,6.3c-2,1.8-4.3,3.2-6.9,4.2
			c-2.7,1-5.4,1.5-8.4,1.5c-2.8,0-5.4-0.4-8-1.2c-2.6-0.8-4.9-2.1-6.9-3.7s-3.6-3.6-4.8-6C913.8,107,913.2,104.1,913.2,101z"/>
		<path class="st0" d="M957.5,200l0.4-2.8c1-9.1,3.3-17.7,6.7-25.7c3.5-8,8-15,13.7-21s12.3-10.7,20.1-14.1
			c7.2-3.2,15.3-4.7,24.2-4.7c0.6,0,1.3,0,1.9,0c7.7,0.2,14.6,1.5,20.6,4.1s11,6.1,15.1,10.6c4,4.4,7,9.8,9.1,16.2
			c1.8,5.6,2.7,11.8,2.7,18.4c0,0.8,0,1.5,0,2.3h-36.7c0-0.5,0-0.9,0-1.4c0-2.1-0.2-4.2-0.5-6.1c-0.3-2.4-1-4.6-2.1-6.5
			s-2.6-3.5-4.5-4.7s-4.4-1.9-7.4-1.9c-0.3,0-0.6,0-1,0c-4.4,0.1-7.9,1.1-10.6,3.2c-3,2.2-5.4,5-7.1,8.5s-3,7.3-3.9,11.4
			c-0.8,4.1-1.4,8-1.8,11.5l-0.2,2.7c-0.2,1.9-0.4,4-0.7,6.4c-0.3,2.4-0.5,4.8-0.5,7.3c-0.1,2.5,0,4.9,0.4,7.3c0.3,2.4,1,4.6,2,6.4
			s2.4,3.4,4.1,4.6s4,1.8,6.9,1.9c0.2,0,0.5,0,0.7,0c5.2,0.1,9.4-1.5,12.6-4.6c3.3-3.3,5.3-7.5,6.2-12.7l36.8-0.1
			c-0.4,7.6-2.2,14.4-5.5,20.5s-7.6,11.2-12.9,15.4c-5.3,4.2-11.3,7.4-18.1,9.5c-6.3,2-12.8,3-19.6,3c-0.5,0-1,0-1.5,0
			c-9.3-0.2-17.2-2-23.8-5.6c-6.6-3.6-12-8.3-16.1-14.2c-4.1-5.9-6.9-12.8-8.5-20.5c-1-5.1-1.6-10.3-1.7-15.7
			C957,205.9,957.1,203,957.5,200z"/>
		<path class="st0" d="M1081.3,200.2l0.4-2.5c1-9.2,3.3-17.9,6.9-26.1c3.6-8.1,8.3-15.2,14.2-21.2c6-6,13-10.7,20.9-14.1
			c7.4-3.2,15.7-4.7,24.8-4.7c0.6,0,1.3,0,1.9,0c9.4,0.2,17.6,2,24.5,5.5s12.5,8.2,16.9,14.2s7.5,12.9,9.2,20.7
			c1.2,5.2,1.8,10.6,1.8,16.1c0,2.8-0.2,5.6-0.5,8.5l-0.2,2.6c-1.1,9.3-3.5,17.9-7.2,26s-8.5,15.1-14.4,21s-12.9,10.6-21,13.9
			c-7.5,3.1-15.8,4.6-24.8,4.6c-0.6,0-1.3,0-1.9,0c-9.2-0.2-17.3-2-24.2-5.5c-6.9-3.5-12.4-8.2-16.7-14c-4.4-5.9-7.5-12.7-9.2-20.5
			c-1.2-5.2-1.8-10.5-1.8-16.2C1080.8,205.9,1080.9,203.1,1081.3,200.2z M1119.5,210.8c0,0.5,0,0.9,0,1.4c0,3.3,0.4,6.5,1.2,9.5
			c0.9,3.4,2.4,6.2,4.7,8.6c2.3,2.3,5.6,3.6,10.1,3.7c0.3,0,0.6,0,1,0c4.4,0,8.1-1,11.1-3.1c3.3-2.2,5.9-5,8-8.4s3.7-7.2,4.8-11.3
			c1.1-4.2,1.8-8.1,2.3-11.9l0.2-2.5c0.2-2.1,0.3-4.4,0.5-6.9s0.2-5,0-7.4c-0.2-2.5-0.5-4.9-1.1-7.3s-1.4-4.5-2.6-6.3
			c-1.2-1.9-2.8-3.3-4.8-4.5c-2-1.1-4.4-1.8-7.4-1.8c-0.3,0-0.6,0-1,0c-4.4,0.1-8.1,1.1-11.1,3.2c-3.3,2.2-5.9,5.1-8,8.6
			s-3.6,7.4-4.7,11.6s-1.8,8.2-2.3,12l-0.2,2.5C1119.9,203.5,1119.6,207,1119.5,210.8z"/>
		<path class="st0" d="M1210.8,262.4l22.3-128.4h39.2l-22.4,128.4H1210.8z M1236.5,101c-0.1-2.8,0.4-5.4,1.5-7.7
			c1.1-2.5,2.7-4.6,4.7-6.3c2-1.8,4.3-3.2,6.9-4.2s5.4-1.5,8.3-1.5c2.8,0,5.6,0.4,8.1,1.2c2.6,0.8,4.8,2.1,6.8,3.7
			c2,1.6,3.6,3.6,4.7,6c1.2,2.4,1.8,5,1.9,8c0,0.2,0,0.4,0,0.6c0,2.8-0.5,5.4-1.5,7.7c-1.1,2.5-2.7,4.6-4.6,6.3
			c-2,1.8-4.3,3.2-6.9,4.2c-2.7,1-5.4,1.5-8.4,1.5c-2.8,0-5.4-0.4-8-1.2c-2.6-0.8-4.9-2.1-6.9-3.7s-3.6-3.6-4.8-6
			C1237.1,107,1236.5,104.1,1236.5,101z"/>
		<path class="st0" d="M1273.9,262.4l22.3-128.4l36.7-0.1l-2.4,15.4c4.7-5.7,10-10.1,16.1-13.3c5.8-3,12.2-4.5,19.4-4.5
			c0.4,0,0.8,0,1.1,0c7.2,0.2,13.1,1.7,17.6,4.6s8.1,6.7,10.6,11.3c2.5,4.6,4.1,9.9,4.7,15.8c0.3,3,0.5,6,0.5,9.1s-0.2,6.2-0.5,9.3
			l-13.5,80.8h-39.2l13.7-81.5c0.2-1.8,0.4-3.5,0.4-5.1c0-0.8,0-1.6-0.1-2.3c-0.2-2.3-0.7-4.2-1.7-5.8c-1-1.6-2.4-2.9-4.2-3.8
			c-1.9-0.9-4.3-1.4-7.4-1.4c-0.2,0-0.4,0-0.6,0c-4.2,0-7.8,0.8-11,2.3c-3.3,1.6-6.4,3.8-9.1,6.5l-14.1,91.2h-39.3V262.4z"/>
	</g>
	<g>
		<path class="st0" d="M204.1,2.4l-45.7,250.3c0,0-62-39.3-129.5,16.2c0,0-63.6-90.1-2.1-190.1S204.1,2.4,204.1,2.4z"/>
		<path class="st0" d="M298.9,152.3c0,0-7.6-58.3-80.3-72.3l-37.8,197.9c0,0-1.5,45.4-52.7,63.3c0,0,123.4,37.1,193.1-75.1
			c68.7-110.8-12.3-215.8-42.3-230.8C278.9,35.3,333.6,84.4,298.9,152.3z"/>
	</g>
</g>
</svg>
