<?xml version="1.0" encoding="utf-8"?>
<!-- Generator: Adobe Illustrator 21.0.2, SVG Export Plug-In . SVG Version: 6.00 Build 0)  -->
<svg version="1.1" id="Capa_1" xmlns="http://www.w3.org/2000/svg" xmlns:xlink="http://www.w3.org/1999/xlink" x="0px" y="0px"
	 viewBox="0 0 250 62" style="enable-background:new 0 0 250 62;" xml:space="preserve">
<style type="text/css">
	.st0{fill:#FFFFFF;}
	.st1{fill:url(#SVGID_1_);}
	.st2{fill:url(#SVGID_2_);}
</style>
<g>
	<path class="st0" d="M75.9,46.7l4-22.9l6.5,0L86,26.5c0.9-1,1.9-1.8,3-2.4c1-0.5,2.2-0.8,3.5-0.8c0.1,0,0.1,0,0.2,0
		c0.6,0,1.2,0.1,1.7,0.2c0.6,0.1,1.1,0.3,1.5,0.6c0.5,0.3,0.9,0.6,1.2,1.1c0.3,0.4,0.6,0.9,0.8,1.5c0.9-1.1,2-1.9,3.1-2.6
		c1.1-0.6,2.3-0.9,3.7-0.9c0.1,0,0.1,0,0.2,0c1.3,0,2.3,0.3,3.1,0.8s1.4,1.2,1.9,2c0.4,0.8,0.7,1.8,0.8,2.8c0.1,0.5,0.1,1.1,0.1,1.6
		c0,0.5,0,1.1-0.1,1.6l-2.4,14.4h-7l2.4-14.3c0-0.4,0.1-0.9,0.1-1.3c0-0.4,0-0.8-0.2-1.1c-0.1-0.3-0.3-0.6-0.6-0.8
		c-0.3-0.2-0.7-0.3-1.2-0.3c-0.7,0-1.4,0.2-1.9,0.5c-0.5,0.4-1,0.8-1.5,1.3l-0.1,0.7l-2.7,15.3h-7L91,32.3c0-0.4,0.1-0.8,0.1-1.3
		c0-0.4,0-0.8-0.2-1.1c-0.1-0.3-0.3-0.6-0.6-0.8c-0.3-0.2-0.7-0.3-1.2-0.3c-0.8,0-1.5,0.2-2.1,0.5c-0.6,0.3-1.2,0.8-1.7,1.3l-2.4,16
		H75.9z"/>
	<path class="st0" d="M113.7,38.6l2.5-14.8h7l-2.5,14.9c0,0.4,0,0.8,0,1.1c0,0.3,0.1,0.7,0.3,0.9c0.2,0.3,0.4,0.5,0.7,0.6
		c0.3,0.2,0.7,0.3,1.1,0.3c0.1,0,0.1,0,0.2,0c0.7,0,1.3-0.1,1.9-0.4c0.6-0.3,1.2-0.8,1.7-1.3l2.8-16.1h7l-4,22.9h-6.5l0.5-2.5
		c-0.8,0.9-1.7,1.7-2.8,2.2c-1,0.5-2.1,0.7-3.2,0.7c-0.1,0-0.1,0-0.2,0c-1.3,0-2.3-0.3-3.2-0.7c-0.9-0.5-1.6-1.1-2.1-1.9
		c-0.5-0.8-0.9-1.7-1.1-2.7c-0.1-0.6-0.2-1.3-0.2-2C113.6,39.5,113.7,39,113.7,38.6z"/>
	<path class="st0" d="M136.3,39.3l6.5,0c0,1,0.3,1.7,0.8,2.2c0.5,0.5,1.2,0.8,2.2,0.8c0,0,0.1,0,0.1,0c0.4,0,0.7,0,1.1-0.1
		c0.4-0.1,0.7-0.2,1-0.4c0.3-0.2,0.6-0.4,0.8-0.7c0.2-0.3,0.4-0.6,0.5-1c0.1-0.4,0-0.8-0.3-1.1c-0.3-0.3-0.6-0.5-1-0.7
		c-0.4-0.2-0.8-0.3-1.3-0.4c-0.5-0.1-0.8-0.2-1.1-0.3c-0.9-0.2-1.7-0.5-2.6-0.9c-0.9-0.4-1.6-0.8-2.3-1.4c-0.7-0.6-1.2-1.2-1.6-2
		c-0.4-0.7-0.5-1.5-0.5-2.4c0-0.1,0-0.2,0-0.3c0-1.3,0.4-2.4,1-3.3c0.6-0.9,1.4-1.7,2.3-2.3c0.9-0.6,2-1.1,3.1-1.4
		c1.1-0.3,2.2-0.4,3.3-0.4c0.1,0,0.1,0,0.1,0c1.2,0,2.3,0.2,3.4,0.5c1.1,0.3,2.1,0.8,2.9,1.4c0.8,0.6,1.5,1.4,2,2.3
		c0.5,0.9,0.8,2,0.8,3.3l-7,0c0-0.4,0-0.8-0.1-1.1c-0.1-0.3-0.2-0.6-0.4-0.8c-0.2-0.2-0.4-0.4-0.7-0.5c-0.3-0.1-0.7-0.2-1.2-0.2
		c-0.3,0-0.7,0.1-1,0.2c-0.3,0.1-0.6,0.3-0.9,0.4c-0.3,0.2-0.5,0.4-0.7,0.7c-0.2,0.3-0.3,0.6-0.4,1c-0.1,0.4,0,0.7,0.2,1
		c0.2,0.3,0.5,0.5,0.8,0.7c0.3,0.2,0.7,0.3,1.1,0.4c0.4,0.1,0.7,0.2,1,0.2c1,0.2,1.9,0.5,2.9,0.8c0.9,0.3,1.8,0.8,2.5,1.3
		c0.7,0.5,1.3,1.2,1.8,2c0.4,0.7,0.6,1.6,0.6,2.7c0,0.1,0,0.2,0,0.3c0,0.9-0.2,1.7-0.5,2.4c-0.3,0.7-0.7,1.3-1.3,1.9
		c-0.5,0.5-1.1,1-1.8,1.4c-0.7,0.4-1.4,0.7-2.2,0.9c-0.8,0.3-1.5,0.4-2.3,0.6c-0.7,0.1-1.4,0.1-2,0.1c-0.1,0-0.2,0-0.3,0
		c-1.2,0-2.3-0.2-3.4-0.5c-1.1-0.3-2.1-0.8-2.9-1.5c-0.8-0.7-1.5-1.5-2.1-2.4C136.6,41.7,136.3,40.5,136.3,39.3z"/>
	<path class="st0" d="M158.4,46.7l4-22.9h7l-4,22.9H158.4z M163,17.9c0-0.5,0.1-1,0.3-1.4c0.2-0.4,0.5-0.8,0.8-1.1
		c0.4-0.3,0.8-0.6,1.2-0.7c0.5-0.2,1-0.3,1.5-0.3c0.5,0,1,0.1,1.5,0.2c0.5,0.1,0.9,0.4,1.2,0.7c0.4,0.3,0.6,0.6,0.8,1.1
		c0.2,0.4,0.3,0.9,0.3,1.4c0,0,0,0.1,0,0.1c0,0.5-0.1,1-0.3,1.4c-0.2,0.4-0.5,0.8-0.8,1.1c-0.4,0.3-0.8,0.6-1.2,0.7
		c-0.5,0.2-1,0.3-1.5,0.3c-0.5,0-1-0.1-1.4-0.2c-0.5-0.1-0.9-0.4-1.2-0.7c-0.4-0.3-0.6-0.6-0.9-1.1C163.1,18.9,163,18.4,163,17.9z"
		/>
	<path class="st0" d="M170.9,35.5L171,35c0.2-1.6,0.6-3.2,1.2-4.6s1.4-2.7,2.4-3.8c1-1.1,2.2-1.9,3.6-2.5c1.3-0.6,2.7-0.8,4.3-0.8
		c0.1,0,0.2,0,0.3,0c1.4,0,2.6,0.3,3.7,0.7c1.1,0.5,2,1.1,2.7,1.9c0.7,0.8,1.3,1.8,1.6,2.9c0.3,1,0.5,2.1,0.5,3.3c0,0.1,0,0.3,0,0.4
		h-6.5c0-0.1,0-0.2,0-0.3c0-0.4,0-0.7-0.1-1.1c-0.1-0.4-0.2-0.8-0.4-1.2c-0.2-0.3-0.5-0.6-0.8-0.8c-0.3-0.2-0.8-0.3-1.3-0.3
		c-0.1,0-0.1,0-0.2,0c-0.8,0-1.4,0.2-1.9,0.6c-0.5,0.4-1,0.9-1.3,1.5c-0.3,0.6-0.5,1.3-0.7,2c-0.1,0.7-0.3,1.4-0.3,2.1l0,0.5
		c0,0.3-0.1,0.7-0.1,1.2c0,0.4-0.1,0.9-0.1,1.3c0,0.4,0,0.9,0.1,1.3c0.1,0.4,0.2,0.8,0.4,1.2c0.2,0.3,0.4,0.6,0.7,0.8
		c0.3,0.2,0.7,0.3,1.2,0.3c0,0,0.1,0,0.1,0c0.9,0,1.7-0.3,2.3-0.8c0.6-0.6,0.9-1.3,1.1-2.3l6.6,0c-0.1,1.4-0.4,2.6-1,3.7
		c-0.6,1.1-1.4,2-2.3,2.7c-0.9,0.7-2,1.3-3.2,1.7c-1.1,0.4-2.3,0.5-3.5,0.5c-0.1,0-0.2,0-0.3,0c-1.7,0-3.1-0.4-4.3-1
		c-1.2-0.6-2.1-1.5-2.9-2.5c-0.7-1.1-1.2-2.3-1.5-3.7c-0.2-0.9-0.3-1.8-0.3-2.8C170.8,36.6,170.9,36.1,170.9,35.5z"/>
	<path class="st0" d="M193,35.6l0.1-0.4c0.2-1.7,0.6-3.2,1.2-4.7c0.6-1.5,1.5-2.7,2.5-3.8c1.1-1.1,2.3-1.9,3.7-2.5
		c1.3-0.6,2.8-0.8,4.4-0.8c0.1,0,0.2,0,0.3,0c1.7,0,3.1,0.4,4.4,1c1.2,0.6,2.2,1.5,3,2.5c0.8,1.1,1.3,2.3,1.6,3.7
		c0.2,0.9,0.3,1.9,0.3,2.9c0,0.5,0,1-0.1,1.5l0,0.5c-0.2,1.7-0.6,3.2-1.3,4.6c-0.7,1.4-1.5,2.7-2.6,3.8c-1.1,1.1-2.3,1.9-3.7,2.5
		c-1.3,0.6-2.8,0.8-4.4,0.8c-0.1,0-0.2,0-0.3,0c-1.7,0-3.1-0.4-4.3-1c-1.2-0.6-2.2-1.5-3-2.5c-0.8-1-1.3-2.3-1.7-3.7
		c-0.2-0.9-0.3-1.9-0.3-2.9C192.9,36.6,193,36.1,193,35.6z M199.8,37.5c0,0.1,0,0.2,0,0.3c0,0.6,0.1,1.2,0.2,1.7
		c0.2,0.6,0.4,1.1,0.8,1.5c0.4,0.4,1,0.6,1.8,0.7c0.1,0,0.1,0,0.2,0c0.8,0,1.4-0.2,2-0.5c0.6-0.4,1.1-0.9,1.4-1.5
		c0.4-0.6,0.7-1.3,0.9-2c0.2-0.7,0.3-1.5,0.4-2.1l0-0.4c0-0.4,0.1-0.8,0.1-1.2c0-0.4,0-0.9,0-1.3c0-0.4-0.1-0.9-0.2-1.3
		c-0.1-0.4-0.3-0.8-0.5-1.1c-0.2-0.3-0.5-0.6-0.8-0.8c-0.4-0.2-0.8-0.3-1.3-0.3c-0.1,0-0.1,0-0.2,0c-0.8,0-1.4,0.2-2,0.6
		c-0.6,0.4-1.1,0.9-1.4,1.5c-0.4,0.6-0.6,1.3-0.8,2.1c-0.2,0.8-0.3,1.5-0.4,2.1l0,0.4C199.9,36.2,199.9,36.8,199.8,37.5z"/>
	<path class="st0" d="M216.1,46.7l4-22.9h7l-4,22.9H216.1z M220.7,17.9c0-0.5,0.1-1,0.3-1.4c0.2-0.4,0.5-0.8,0.8-1.1
		c0.4-0.3,0.8-0.6,1.2-0.7c0.5-0.2,1-0.3,1.5-0.3c0.5,0,1,0.1,1.5,0.2c0.5,0.1,0.9,0.4,1.2,0.7c0.4,0.3,0.6,0.6,0.8,1.1
		c0.2,0.4,0.3,0.9,0.3,1.4c0,0,0,0.1,0,0.1c0,0.5-0.1,1-0.3,1.4c-0.2,0.4-0.5,0.8-0.8,1.1c-0.4,0.3-0.8,0.6-1.2,0.7
		c-0.5,0.2-1,0.3-1.5,0.3c-0.5,0-1-0.1-1.4-0.2c-0.5-0.1-0.9-0.4-1.2-0.7c-0.4-0.3-0.6-0.6-0.9-1.1
		C220.8,18.9,220.7,18.4,220.7,17.9z"/>
	<path class="st0" d="M227.4,46.7l4-22.9l6.5,0l-0.4,2.7c0.8-1,1.8-1.8,2.9-2.4c1-0.5,2.2-0.8,3.5-0.8c0.1,0,0.1,0,0.2,0
		c1.3,0,2.3,0.3,3.1,0.8c0.8,0.5,1.4,1.2,1.9,2c0.4,0.8,0.7,1.8,0.8,2.8c0.1,0.5,0.1,1.1,0.1,1.6c0,0.5,0,1.1-0.1,1.7l-2.4,14.4h-7
		l2.4-14.6c0-0.3,0.1-0.6,0.1-0.9c0-0.1,0-0.3,0-0.4c0-0.4-0.1-0.7-0.3-1c-0.2-0.3-0.4-0.5-0.8-0.7s-0.8-0.2-1.3-0.2
		c0,0-0.1,0-0.1,0c-0.7,0-1.4,0.1-2,0.4c-0.6,0.3-1.1,0.7-1.6,1.2l-2.5,16.3H227.4z"/>
</g>
<g>
	<linearGradient id="SVGID_1_" gradientUnits="userSpaceOnUse" x1="0" y1="23.8448" x2="36.4366" y2="23.8448">
		<stop  offset="3.568209e-04" style="stop-color:#FFD400"/>
		<stop  offset="0.9996" style="stop-color:#F2911A"/>
	</linearGradient>
	<path class="st1" d="M36.4,0.3L28.3,45c0,0-11.1-7-23.1,2.9c0,0-11.3-16.1-0.4-33.9S36.4,0.3,36.4,0.3z"/>
	<linearGradient id="SVGID_2_" gradientUnits="userSpaceOnUse" x1="22.8659" y1="33.9726" x2="62.1436" y2="33.9726">
		<stop  offset="3.568209e-04" style="stop-color:#FFD400"/>
		<stop  offset="0.9996" style="stop-color:#F2911A"/>
	</linearGradient>
	<path class="st2" d="M53.4,27c0,0-1.4-10.4-14.3-12.9l-6.7,35.3c0,0-0.3,8.1-9.4,11.3c0,0,22,6.6,34.5-13.4
		c12.3-19.8-2.2-38.5-7.5-41.2C49.8,6.1,59.5,14.9,53.4,27z"/>
</g>
</svg>
